# AST/ASF file generated using VICON BodyLanguage
# -----------------------------------------------
:version 1.10
:name VICON
:units
  mass 1.0
  length 0.45
  angle deg
:documentation
   .ast/.asf automatically generated from VICON data using
   VICON BodyBuilder and BodyLanguage model FoxedUp or BRILLIANT.MOD
:root
   order TX TY TZ RX RY RZ
   axis XYZ
   position 0 0 0  
   orientation 0 0 0 
:bonedata
  begin
     id 1 
     name lhipjoint
     direction 0.671379 -0.66392 0.329334 
     length 2.38647 
     axis 0 0 0  XYZ
  end
  begin
     id 2 
     name lfemur
     direction 0.34202 -0.939693 0  
     length 6.48179  
     axis 0 0 20  XYZ
    dof rx ry rz
    limits (-160.0 20.0)
           (-70.0 70.0)
           (-60.0 70.0)
  end
  begin
     id 3 
     name ltibia
     direction 0.34202 -0.939693 0   
     length 6.86524   
     axis 0 0 20   XYZ
    dof rx
    limits (-10.0 170.0)
  end
  begin
     id 4 
     name lfoot
     direction 0.204886 -0.562919 0.800715   
     length 1.73031   
     axis -90 7.62852e-016 20   XYZ
    dof rx rz
    limits (-45.0 90.0)
           (-70.0 20.0)
  end
  begin
     id 5 
     name ltoes
     direction 1.53548e-011 -4.21841e-011 1   
     length 0.828161   
     axis -90 7.62852e-016 20   XYZ
    dof rx
    limits (-90.0 20.0)
  end
  begin
     id 6 
     name rhipjoint
     direction -0.662732 -0.670855 0.332775   
     length 2.3618  
     axis 0 0 0  XYZ 
  end
  begin
     id 7 
     name rfemur
     direction -0.34202 -0.939693 0   
     length 6.3025   
     axis 0 0 -20   XYZ
    dof rx ry rz
    limits (-160.0 20.0)
           (-70.0 70.0)
           (-70.0 60.0)
  end
  begin
     id 8 
     name rtibia
     direction -0.34202 -0.939693 0   
     length 6.8732   
     axis 0 0 -20   XYZ
    dof rx
    limits (-10.0 170.0)
 end
 begin
     id 9 
     name rfoot
     direction -0.173856 -0.477665 0.861168   
     length 1.54784  
     axis -90 -7.62852e-016 -20   XYZ
    dof rx rz
    limits (-45.0 90.0)
           (-20.0 70.0)
  end
  begin
     id 10 
     name rtoes
     direction -1.53562e-011 -4.21802e-011 1   
     length 0.759618   
     axis -90 -7.62852e-016 -20   XYZ
    dof rx
    limits (-90.0 20.0)
  end
  begin
     id 11 
     name lowerback
     direction -0.0278357 0.999497 -0.0151789   
     length 1.97203   
     axis 0 0 0   XYZ
    dof rx ry rz
    limits (-20.0 45.0)
           (-30.0 30.0)
           (-30.0 30.0)
  end
  begin
     id 12 
     name upperback
     direction -0.00360622 0.997542 0.0699804   
     length 1.94709   
     axis 0 0 0   XYZ
    dof rx ry rz
    limits (-20.0 45.0)
           (-30.0 30.0)
           (-30.0 30.0)
  end
  begin
     id 13 
     name thorax
     direction 0.00907706 0.997048 0.0762461   
     length 1.95722   
     axis 0 0 0   XYZ
    dof rx ry rz
    limits (-20.0 45.0)
           (-30.0 30.0)
           (-30.0 30.0)
  end
  begin
     id 14 
     name lowerneck
     direction -0.0481835 0.99872 -0.0153927   
     length 1.63078   
     axis 0 0 0   XYZ
    dof rx ry rz
    limits (-20.0 45.0)
           (-30.0 30.0)
           (-30.0 30.0)
  end
  begin
     id 15 
     name upperneck
     direction 0.0859716 0.979226 -0.183644   
     length 1.62591   
     axis 0 0 0   XYZ
    dof rx ry rz
    limits (-20.0 45.0)
           (-30.0 30.0)
           (-30.0 30.0)
  end
  begin
     id 16
     name head
     direction 0.0324821 0.997629 -0.0606773  
     length 1.64811  
     axis 0 0 0   XYZ
    dof rx ry rz
    limits (-20.0 45.0)
           (-30.0 30.0)
           (-30.0 30.0)
  end
  begin
     id 17 
     name lclavicle
     direction 0.939609 0.311019 0.142835  
     length 3.70647  
     axis 0 0 0   XYZ
    dof ry rz
    limits (-20.0 10.0)
           (0.0 20.0)
  end
  begin
     id 18 
     name lhumerus
     direction 1 -4.48963e-011 -1.59838e-027   
     length 4.59207   
     axis 180 -30 -90   XYZ
    dof rx ry rz
    limits (-60.0 90.0)
           (-90.0 90.0)
           (-90.0 90.0)
  end
  begin
     id 19
     name lradius
     direction 1 -4.48957e-011 -1.3483e-026   
     length 2.98109   
     axis 180 -30 -90   XYZ
    dof rx
    limits (-10.0 170.0)
  end
  begin
     id 20
     name lwrist
     direction 1 -4.48954e-011 -3.11579e-026   
     length 1.49055   
     axis 2.00652e-014 90 90   XYZ
    dof ry
    limits (-180.0 0.0)
 end
  begin
     id 21 
     name lhand
     direction 1 -4.4911e-011 -6.23158e-026   
     length 0.480203   
     axis 3.97628e-014 90 90   XYZ
    dof rx rz
    limits (-90.0 90.0)
           (-45.0 45.0)
  end
  begin
     id 22 
     name lfingers
     direction 1 -4.48893e-011 -1.24632e-025   
     length 0.387152   
     axis 7.95256e-014 90 90   XYZ
    dof rx
    limits (0.0 90.0)
  end
  begin
     id 23
     name lthumb
     direction 0.707107 -6.35013e-011 0.707107   
     length 0.555875   
     axis -90 45 2.85299e-015   XYZ
    dof rx rz
    limits (-45.0 45.0)
           (-45.0 45.0)
  end
  begin
     id 24 
     name rclavicle
     direction -0.950396 0.30392 0.0661859   
     length 3.70894  
     axis 0 0 0   XYZ 
    dof ry rz
    limits (-10.0 20.0)
           (-20.0 0.0)
  end
  begin
     id 25 
     name rhumerus
     direction -1 -4.48957e-011 -2.96677e-027  
     length 4.76508   
     axis 180 30 90   XYZ
    dof rx ry rz
    limits (-90.0 60.0)
           (-90.0 90.0)
           (-90.0 90.0)
  end
  begin
     id 26 
     name rradius
     direction -1 -4.48974e-011 -1.44501e-026   
     length 2.78902   
     axis 180 30 90   XYZ
    dof rx
    limits (-10.0 170.0)
  end
  begin
     id 27 
     name rwrist
     direction -1 -4.48978e-011 -3.11579e-026   
     length 1.39451   
     axis 2.00652e-014 -90 -90   XYZ
    dof ry
    limits (-180.0 0.0)
  end
  begin
     id 28
     name rhand
     direction -1 -4.48956e-011 -6.23158e-026   
     length 0.721303   
     axis 3.97628e-014 -90 -90   XYZ
    dof rx rz
    limits (-90.0 90.0)
           (-45.0 45.0)
  end
  begin
     id 29
     name rfingers
     direction -1 -4.4899e-011 -1.24632e-025   
     length 0.581533   
     axis 7.95256e-014 -90 -90   XYZ
    dof rx
    limits (0.0 90.0)
  end
  begin
     id 30
     name rthumb
     direction -0.707107 -6.34911e-011 0.707107   
     length 0.834968   
     axis -90 -45 -2.85299e-015   XYZ
    dof rx rz
    limits (-45.0 45.0)
           (-45.0 45.0)
  end
:hierarchy
  begin
    root lhipjoint rhipjoint lowerback
    lhipjoint lfemur
    lfemur ltibia
    ltibia lfoot
    lfoot ltoes
    rhipjoint rfemur
    rfemur rtibia
    rtibia rfoot
    rfoot rtoes
    lowerback upperback
    upperback thorax
    thorax lowerneck lclavicle rclavicle
    lowerneck upperneck
    upperneck head
    lclavicle lhumerus
    lhumerus lradius
    lradius lwrist
    lwrist lhand lthumb
    lhand lfingers
    rclavicle rhumerus
    rhumerus rradius
    rradius rwrist
    rwrist rhand rthumb
    rhand rfingers
  end

#!OML:ASF I:\salsa\salsa 7_09\Patient 1\Session 1\dancerfemale.ASF
:FULLY-SPECIFIED
:DEGREES
444
root 3.39024 16.0129 4.44536 13.2658 -161.671 -4.5537
lowerback -2.1699 6.63015 1.01877
upperback -11.9608 7.11511 -6.85465
thorax -10.5763 2.41778 -8.35042
lowerneck -2.42721 15.794 -4.84914
upperneck 13.188 20.3821 9.22457
head 3.20938 10.137 4.32124
rclavicle -5.56597e-014 -4.77083e-014
rhumerus -80.8781 -13.1906 -45.2154
rradius 67.3758
rwrist -21.934
rhand -1.44088 63.0784
rfingers 7.12502
rthumb 24.2096 34.5865
lclavicle -5.56597e-014 -4.77083e-014
lhumerus -11.5118 -32.7986 100.527
lradius 141.093
lwrist -17.0764
lhand -29.3757 31.1092
lfingers 7.12502
lthumb -2.71459 421.072
rfemur -38.0308 -32.1273 18.3543
rtibia 49.5908
rfoot -26.5861 -38.7402
rtoes 16.634
lfemur -28.6282 24.2746 -38.0351
ltibia 48.1312
lfoot -20.2076 25.4735
ltoes -24.4071
445
root 3.56077 16.0464 4.37667 12.2692 -168.811 -4.60071
lowerback -2.48638 6.32305 0.703482
upperback -11.8723 6.57827 -6.7305
thorax -10.4141 2.14531 -7.96078
lowerneck -2.85121 15.8659 -4.87726
upperneck 13.3373 20.4776 9.18423
head 3.33414 10.1697 4.37125
rclavicle -5.725e-014 -3.97569e-014
rhumerus -80.2016 -13.1895 -46.8792
rradius 68.9382
rwrist -22.499
rhand -0.750087 63.4078
rfingers 7.12502
rthumb 24.8717 35.0058
lclavicle -5.725e-014 -3.97569e-014
lhumerus -11.5923 -32.4088 101.029
lradius 140.796
lwrist -17.1438
lhand -29.0462 31.1958
lfingers 7.12502
lthumb -2.39634 421.162
rfemur -37.8767 -31.492 19.3578
rtibia 48.7943
rfoot -27.8073 -39.7993
rtoes 20.2728
lfemur -28.212 25.0867 -37.6156
ltibia 48.6224
lfoot -19.694 27.4114
ltoes -22.1071
446
root 3.75057 16.0868 4.30149 11.2686 -175.924 -5.02607
lowerback -2.84119 5.95421 -0.040532
upperback -11.7611 5.89392 -6.78047
thorax -10.2474 1.81266 -7.51532
lowerneck -3.93058 15.7672 -5.05479
upperneck 14.2079 20.2292 10.2273
head 3.30121 10.121 4.39145
rclavicle -7.39479e-014 3.97569e-014
rhumerus -79.4645 -12.9949 -49.2424
rradius 70.7921
rwrist -23.3444
rhand -0.699692 62.8215
rfingers 7.12502
rthumb 24.92 34.4261
lclavicle -7.39479e-014 3.97569e-014
lhumerus -11.8501 -32.6368 101.26
lradius 140.525
lwrist -17.3652
lhand -29.2651 32.1959
lfingers 7.12502
lthumb -2.60771 422.16
rfemur -37.3348 -31.4249 20.1919
rtibia 47.3692
rfoot -26.9494 -40.1641
rtoes 17.3362
lfemur -27.5305 25.3387 -37.1429
ltibia 49.2835
lfoot -17.9065 29.8634
ltoes -17.912
447
root 3.96531 16.14 4.22314 10.0566 -182.795 -5.50141
lowerback -2.95514 3.10626 -0.789466
upperback -12.0966 5.73799 -6.55719
thorax -10.6817 3.34456 -7.15886
lowerneck -4.15151 15.1364 -4.8888
upperneck 14.1966 19.265 10.8355
head 3.35129 9.67157 4.56207
rclavicle 3.18055e-015 -7.95139e-015
rhumerus -79.1419 -12.461 -51.6677
rradius 72.602
rwrist -23.837
rhand 0.231551 63.0827
rfingers 7.12502
rthumb 25.8121 34.814
lclavicle 3.18055e-015 -7.95139e-015
lhumerus -13.023 -33.3301 101.943
lradius 140.237
lwrist -17.5099
lhand -28.4295 32.8463
lfingers 7.12502
lthumb -1.80068 422.818
rfemur -35.6866 -30.0002 20.5717
rtibia 45.3376
rfoot -27.2101 -38.1419
rtoes 6.33127
lfemur -26.5204 25.2764 -36.173
ltibia 50.3095
lfoot -15.0418 30.8179
ltoes -14.1386
448
root 4.21104 16.1672 4.14086 8.6259 -189.512 -5.59006
lowerback -3.54705 2.68561 -1.38013
upperback -11.8628 5.0046 -6.52079
thorax -10.1849 2.99289 -6.6518
lowerneck -5.258 14.2214 -4.86922
upperneck 14.7166 17.8857 11.687
head 3.70529 9.0424 4.92715
rclavicle 4.57205e-014 1.90833e-014
rhumerus -78.6145 -12.5709 -53.6664
rradius 74.4695
rwrist -23.1027
rhand -1.09267 62.3043
rfingers 7.12502
rthumb 24.5434 33.8573
lclavicle 4.57205e-014 1.90833e-014
lhumerus -13.9788 -34.3998 102.565
lradius 140.067
lwrist -17.3309
lhand -27.5948 34.8934
lfingers 7.12502
lthumb -0.994598 424.871
rfemur -33.4629 -27.8182 21.0821
rtibia 42.9159
rfoot -25.6344 -34.7701
rtoes 0.257355
lfemur -25.4167 25.6065 -34.2795
ltibia 52.0592
lfoot -12.4877 28.9249
ltoes -14.9972
449
root 4.47634 16.1497 4.07621 7.58581 -195.976 -5.2221
lowerback -4.65628 2.03575 -1.29253
upperback -11.4547 4.00105 -6.44043
thorax -9.16156 2.45159 -6.417
lowerneck -5.70543 12.1776 -5.38489
upperneck 13.6842 16.1666 12.418
head 3.50991 8.74373 5.22032
rclavicle 2.26615e-014 -1.59028e-015
rhumerus -77.1322 -12.0489 -56.7312
rradius 76.5929
rwrist -23.2207
rhand -1.26111 61.9387
rfingers 7.12502
rthumb 24.3819 33.4698
lclavicle 2.26615e-014 -1.59028e-015
lhumerus -14.0528 -35.0311 101.924
lradius 139.721
lwrist -17.1295
lhand -27.4147 36.1395
lfingers 7.12502
lthumb -0.820575 426.118
rfemur -31.1086 -24.7892 22.1246
rtibia 40.4872
rfoot -28.5732 -32.0177
rtoes 5.18561
lfemur -24.7243 25.7323 -31.6561
ltibia 54.4689
lfoot -6.69987 26.2941
ltoes -14.7656
450
root 4.74632 16.1063 4.05331 7.2711 -201.797 -4.67338
lowerback -5.20266 0.803875 -1.33447
upperback -11.8092 2.31632 -5.98033
thorax -9.42693 1.61575 -5.85157
lowerneck -5.30928 10.782 -6.03303
upperneck 12.7278 14.2028 13.0798
head 3.22716 7.72291 5.42042
rclavicle 2.8625e-014 -8.90555e-014
rhumerus -75.8427 -10.9886 -59.235
rradius 78.3858
rwrist -22.8582
rhand -0.549637 62.3851
rfingers 7.12502
rthumb 25.0638 34.0097
lclavicle 2.8625e-014 -8.90555e-014
lhumerus -15.6461 -34.5474 102.165
lradius 139.277
lwrist -17.414
lhand -27.7202 38.7149
lfingers 7.12502
lthumb -1.11573 428.692
rfemur -29.1281 -21.1661 23.4711
rtibia 38.3498
rfoot -29.0311 -30.1409
rtoes 2.6995
lfemur -25.2462 25.1574 -28.9816
ltibia 57.4625
lfoot -1.75938 23.845
ltoes -8.75114
451
root 5.00744 16.0447 4.04002 7.40509 -207.751 -4.09868
lowerback -6.03916 -0.369894 -1.39352
upperback -12.24 0.752774 -5.39584
thorax -9.57346 0.861049 -5.14347
lowerneck -5.07053 8.85101 -7.20005
upperneck 11.8467 11.5643 14.1517
head 3.03205 6.37735 5.85958
rclavicle 3.37934e-014 1.06549e-013
rhumerus -74.4527 -9.57539 -61.5735
rradius 80.3964
rwrist -22.7821
rhand -0.617864 62.3599
rfingers 7.12502
rthumb 24.9984 33.9755
lclavicle 3.37934e-014 1.06549e-013
lhumerus -17.1581 -33.5449 102.501
lradius 138.842
lwrist -17.7192
lhand -26.1914 36.6533
lfingers 7.12502
lthumb 0.360891 426.633
rfemur -27.6287 -16.7414 24.6286
rtibia 36.6645
rfoot -29.7635 -27.9992
rtoes 2.29506
lfemur -26.0506 24.4353 -26.5587
ltibia 60.5066
lfoot 3.34549 21.1933
ltoes -2.54527
452
root 5.24688 15.9789 4.06323 7.78664 -213.214 -3.54512
lowerback -6.45145 -1.72763 -1.54073
upperback -12.6822 -1.07464 -4.69168
thorax -9.963 -0.012465 -4.27438
lowerneck -5.318 6.54016 -7.89942
upperneck 11.4978 8.42374 14.578
head 3.25942 4.79119 6.09425
rclavicle 8.11041e-014 -7.15625e-014
rhumerus -72.8043 -8.62952 -63.6678
rradius 82.5638
rwrist -23.4478
rhand -0.490561 62.2336
rfingers 7.12502
rthumb 25.1204 33.8662
lclavicle 8.11041e-014 -7.15625e-014
lhumerus -18.6573 -32.9024 103.014
lradius 138.304
lwrist -18.1643
lhand -25.9902 38.2713
lfingers 7.12502
lthumb 0.555217 428.25
rfemur -26.8135 -12.1208 25.6417
rtibia 35.5865
rfoot -29.8119 -26.542
rtoes 1.40234
lfemur -27.1473 22.9644 -24.3044
ltibia 63.4703
lfoot 8.31054 18.4125
ltoes 3.10952
453
root 5.42746 15.9453 4.0877 7.97312 -219.114 -3.0065
lowerback -6.19908 -2.86939 -1.23059
upperback -13.0295 -2.6879 -4.07152
thorax -10.6059 -0.845274 -3.73817
lowerneck -4.31963 4.11848 -8.25429
upperneck 10.0399 5.14745 14.8785
head 3.02207 3.08682 6.12132
rclavicle -1.18476e-013 -2.06736e-014
rhumerus -70.8533 -7.98209 -65.9454
rradius 84.8123
rwrist -24.576
rhand -0.59714 62.0445
rfingers 7.12502
rthumb 25.0183 33.6628
lclavicle -1.18476e-013 -2.06736e-014
lhumerus -20.1267 -32.2977 103.486
lradius 137.607
lwrist -19.1085
lhand -25.8308 40.1323
lfingers 7.12502
lthumb 0.709142 430.111
rfemur -26.279 -8.20843 26.4954
rtibia 34.9253
rfoot -29.2358 -25.0207
rtoes 1.70934
lfemur -27.5673 19.5079 -22.5832
ltibia 65.9447
lfoot 9.07105 16.0979
ltoes 3.44103
454
root 5.57787 15.8964 4.11154 8.00274 -225.379 -2.66448
lowerback -5.79774 -3.91931 -1.17487
upperback -13.2586 -4.19629 -3.39835
thorax -11.1517 -1.60014 -2.96643
lowerneck -3.2473 1.53081 -9.15444
upperneck 8.57463 1.67806 15.2097
head 2.81468 1.26096 6.25613
rclavicle 2.50469e-014 6.12257e-014
rhumerus -68.5661 -7.21014 -68.2943
rradius 86.9566
rwrist -25.4362
rhand -1.77879 61.1732
rfingers 7.12502
rthumb 23.8855 32.6385
lclavicle 2.50469e-014 6.12257e-014
lhumerus -21.4462 -30.8857 103.903
lradius 136.956
lwrist -19.6016
lhand -24.1364 38.7706
lfingers 7.12502
lthumb 2.3456 428.737
rfemur -26.0292 -4.89159 27.1869
rtibia 34.7614
rfoot -27.8061 -23.2666
rtoes 0.00462919
lfemur -28.0379 16.7264 -21.3864
ltibia 68.1643
lfoot 7.96094 12.3114
ltoes -3.40353
455
root 5.68054 15.8617 4.08909 8.27941 -233.043 -2.10478
lowerback -5.52901 -4.37623 -0.460727
upperback -13.3448 -4.91706 -2.79158
thorax -11.4579 -2.04948 -2.64507
lowerneck -1.89106 -1.21381 -11.9907
upperneck 6.62701 -2.02248 17.9444
head 2.53258 -0.658481 7.51136
rclavicle 1.59028e-014 -8.74653e-015
rhumerus -65.6269 -7.97934 -70.0252
rradius 88.5932
rwrist -25.5959
rhand 0.742066 62.2567
rfingers 7.12502
rthumb 26.301 34.06
lclavicle 1.59028e-014 -8.74653e-015
lhumerus -22.9848 -28.8355 104.549
lradius 136.208
lwrist -20.068
lhand -22.716 38.4773
lfingers 7.12502
lthumb 3.71737 428.425
rfemur -26.0103 -2.67589 27.7549
rtibia 35.0709
rfoot -25.9677 -19.0389
rtoes -2.72655
lfemur -28.5996 14.2258 -20.7907
ltibia 69.8722
lfoot 5.72285 10.4498
ltoes -6.6424
456
root 5.77525 15.8225 4.05887 7.98198 -241.259 -2.04262
lowerback -5.03765 -4.60092 -0.292169
upperback -13.2143 -5.35351 -2.30568
thorax -11.5796 -2.31465 -2.14764
lowerneck -0.248362 -4.24237 -10.1374
upperneck 4.63463 -6.06604 15.5598
head 2.18744 -2.8262 6.26778
rclavicle 3.91606e-014 5.56597e-015
rhumerus -62.6533 -8.1336 -72.4733
rradius 90.4095
rwrist -25.3639
rhand 0.717819 62.2701
rfingers 7.12502
rthumb 26.2777 34.0699
lclavicle 3.91606e-014 5.56597e-015
lhumerus -24.145 -27.0416 104.632
lradius 135.645
lwrist -20.3147
lhand -21.7949 39.0422
lfingers 7.12502
lthumb 4.60685 428.972
rfemur -25.8682 -0.883705 27.8805
rtibia 35.7938
rfoot -24.8291 -13.8397
rtoes -4.80078
lfemur -28.8311 11.9781 -20.7135
ltibia 71.2527
lfoot 2.50717 10.3057
ltoes -13.7865
457
root 5.86844 15.7469 4.01861 6.57796 -249.923 -2.84656
lowerback -4.21534 -4.63224 -0.593061
upperback -13.0079 -5.5496 -1.95463
thorax -11.7593 -2.41675 -1.52839
lowerneck 1.81649 -7.24602 -12.3778
upperneck 2.59905 -10.2335 18.2355
head 2.06977 -5.01382 7.37393
rclavicle 1.92821e-014 3.97569e-015
rhumerus -59.8212 -8.89674 -74.8763
rradius 91.5137
rwrist -23.9709
rhand -0.785017 62.0784
rfingers 7.12502
rthumb 24.8383 33.6717
lclavicle 1.92821e-014 3.97569e-015
lhumerus -26.5999 -24.6852 105.174
lradius 134.922
lwrist -21.6347
lhand -21.5326 40.0777
lfingers 7.12502
lthumb 4.86011 430.002
rfemur -25.4561 0.74678 27.6607
rtibia 36.7151
rfoot -24.1045 -8.32438
rtoes -5.33363
lfemur -28.8541 9.56468 -20.959
ltibia 72.2416
lfoot -1.03669 11.9224
ltoes -12.979
458
root 5.97382 15.7048 3.9682 2.44295 -258.72 -6.11356
lowerback -3.10744 -4.66636 -1.26817
upperback -12.8493 -5.76151 -1.66281
thorax -12.136 -2.47811 -0.744054
lowerneck 5.55041 -9.96531 -13.506
upperneck 0.265637 -14.1248 19.706
head 1.5858 -7.18724 8.00536
rclavicle -7.61345e-014 -5.60573e-014
rhumerus -57.7058 -8.62751 -77.5719
rradius 92.9912
rwrist -23.2824
rhand -0.19552 62.9699
rfingers 7.12502
rthumb 25.4031 34.6424
lclavicle -7.61345e-014 -5.60573e-014
lhumerus -29.3941 -21.5332 105.164
lradius 135.055
lwrist -21.0763
lhand -19.9895 41.2219
lfingers 7.12502
lthumb 6.34995 431.107
rfemur -24.661 2.31486 27.1593
rtibia 37.7464
rfoot -23.7726 -2.81371
rtoes -4.97278
lfemur -28.188 7.37938 -21.2901
ltibia 72.5501
lfoot -5.78181 13.7234
ltoes -8.34696
